<svg width="276" height="78" xmlns="http://www.w3.org/2000/svg" xmlns:xlink="http://www.w3.org/1999/xlink" xml:space="preserve" overflow="hidden"><defs><clipPath id="clip0"><rect x="969" y="25" width="276" height="78"/></clipPath></defs><g clip-path="url(#clip0)" transform="translate(-969 -25)"><path d="M31.3678 168.511 31.3171 168.533C31.0192 168.374 30.6493 168.196 30.2085 167.998 29.7778 167.803 29.3194 167.605 28.8375 167.408L28.8172 167.355 28.9071 167.157 28.9597 167.14C29.0782 167.18 29.1916 167.22 29.2995 167.256 29.4946 167.328 29.6205 167.361 29.6855 167.365 29.7312 167.365 29.781 167.337 29.8363 167.288 29.9249 167.2 30.1333 166.799 30.4616 166.069L30.8301 165.254C30.9435 165.009 31.0791 164.697 31.2396 164.316L31.3447 164.067C31.3955 163.959 31.3955 163.895 31.3503 163.873 31.3323 163.866 31.2539 163.859 31.122 163.86 30.7609 163.863 30.4487 163.869 30.1882 163.876L30.1605 163.836C30.2034 163.706 30.2435 163.557 30.2781 163.386L30.2933 163.363C30.974 163.467 31.7524 163.545 32.6267 163.595L32.6742 163.674C32.6064 163.8 32.5082 163.987 32.3782 164.233 32.3274 164.325 32.2043 164.579 32.006 164.993L31.4139 166.28C30.9975 167.199 30.7891 167.701 30.7891 167.784 30.7863 167.841 30.8061 167.89 30.8467 167.917 30.9117 167.976 31.1063 168.091 31.4333 168.259L31.4582 168.309 31.3678 168.511Z" fill="#9B0000" transform="matrix(1.00542 0 0 1 969 -73.6626)"/><path d="M41.2931 169.272C41.2548 169.551 41.1677 169.795 41.0238 169.993 40.7554 170.377 40.3745 170.613 39.8751 170.698 39.6689 170.737 39.4254 170.733 39.1446 170.697 38.5414 170.616 38.107 170.35 37.8386 169.898 37.7174 169.699 37.6782 169.448 37.7174 169.152 37.7653 168.791 37.9341 168.512 38.2251 168.319 38.3205 168.26 38.5211 168.171 38.8273 168.072 38.3307 167.73 38.1149 167.311 38.1799 166.815 38.256 166.257 38.5921 165.889 39.1893 165.704 39.4503 165.627 39.7363 165.607 40.048 165.648 40.5036 165.707 40.8536 165.859 41.0888 166.1 41.3138 166.331 41.4028 166.602 41.3637 166.918 41.3051 167.346 41.0035 167.664 40.4603 167.867 40.8144 168.058 41.0542 168.269 41.1801 168.5 41.2977 168.704 41.3323 168.968 41.2931 169.272ZM40.3459 169.567C40.3934 169.223 40.2541 168.938 39.9346 168.72 39.7256 168.576 39.5011 168.44 39.2567 168.309L39.1529 168.26C38.7406 168.466 38.5101 168.769 38.4556 169.166 38.4243 169.394 38.445 169.581 38.5234 169.735 38.6876 170.076 38.9606 170.276 39.3369 170.327 39.6039 170.361 39.8266 170.307 40.0111 170.17 40.2006 170.024 40.3136 169.825 40.3459 169.567ZM40.6705 166.928C40.7001 166.692 40.6503 166.497 40.5119 166.331 40.3745 166.168 40.173 166.069 39.9069 166.035 39.6652 166 39.4683 166.042 39.3088 166.159 39.1589 166.266 39.0759 166.411 39.0482 166.597 39.0261 166.777 39.0893 166.956 39.2382 167.125 39.3203 167.219 39.4453 167.313 39.6081 167.413 39.6652 167.453 39.7542 167.503 39.8714 167.572L40.0775 167.686C40.4248 167.541 40.6226 167.288 40.6705 166.928Z" fill="#9B0000" transform="matrix(1.00542 0 0 1 969 -73.6626)"/><path d="M49.7542 167.441C49.8414 168.079 49.7865 168.621 49.591 169.071 49.3876 169.546 49.0842 169.946 48.6802 170.265 48.2657 170.593 47.7856 170.794 47.2461 170.869L46.8984 170.678 46.9754 170.526C47.0584 170.539 47.1575 170.539 47.2779 170.524 47.6911 170.466 48.0351 170.276 48.309 169.956 48.4169 169.828 48.5124 169.663 48.5926 169.463 48.7227 169.147 48.7808 168.698 48.7665 168.123 48.4169 168.506 48.2163 168.705 48.1734 168.717 48.006 168.797 47.8193 168.851 47.6177 168.88 47.2613 168.929 46.9588 168.851 46.7047 168.649 46.4289 168.428 46.2606 168.102 46.2025 167.667 46.1024 166.966 46.3058 166.412 46.8057 166.002 47.0418 165.808 47.3471 165.685 47.727 165.635 48.4381 165.533 48.9874 165.765 49.3706 166.317 49.562 166.59 49.6865 166.964 49.7542 167.441ZM48.6627 167.215C48.5995 166.773 48.4824 166.456 48.3086 166.26 48.1347 166.067 47.924 165.989 47.6786 166.02 47.372 166.065 47.1838 166.24 47.1188 166.557 47.081 166.726 47.0759 166.918 47.1082 167.14 47.1617 167.508 47.2779 167.784 47.455 167.96 47.6237 168.128 47.8313 168.193 48.0747 168.158 48.3916 168.119 48.582 167.963 48.6544 167.698 48.6876 167.577 48.6876 167.415 48.6627 167.215Z" fill="#9B0000" transform="matrix(1.00542 0 0 1 969 -73.6626)"/><path d="M58.2117 165.945C58.327 166.204 58.3768 166.456 58.3588 166.697 58.327 167.164 58.1209 167.565 57.739 167.898 57.5809 168.039 57.3724 168.165 57.111 168.274 56.5539 168.515 56.0471 168.515 55.5859 168.269 55.377 168.158 55.2129 167.965 55.0939 167.698 54.9486 167.361 54.9486 167.031 55.0939 166.717 55.1437 166.616 55.2724 166.44 55.4836 166.193 54.8772 166.16 54.4755 165.913 54.2777 165.457 54.0512 164.94 54.1476 164.448 54.5668 163.981 54.7471 163.777 54.9804 163.615 55.2696 163.485 55.6906 163.303 56.0678 163.249 56.3934 163.337 56.7047 163.417 56.9256 163.605 57.0515 163.895 57.2272 164.293 57.1317 164.721 56.7706 165.175 57.1718 165.154 57.4886 165.208 57.7141 165.339 57.9203 165.457 58.0858 165.658 58.2117 165.945ZM56.4644 164.262C56.3685 164.047 56.22 163.903 56.0194 163.836 55.8161 163.766 55.5952 163.786 55.3494 163.895 55.1289 163.99 54.9777 164.128 54.9025 164.309 54.832 164.479 54.832 164.645 54.908 164.816 54.9832 164.986 55.1289 165.101 55.3443 165.174 55.46 165.207 55.6154 165.227 55.8077 165.227 55.8765 165.23 55.9793 165.23 56.1149 165.227L56.3487 165.214C56.5719 164.913 56.6101 164.594 56.4644 164.262ZM57.5564 166.687C57.4181 166.369 57.1525 166.198 56.7651 166.174 56.511 166.16 56.2477 166.161 55.9724 166.178L55.8571 166.184C55.6127 166.575 55.5698 166.957 55.7307 167.321 55.8216 167.531 55.9406 167.682 56.0831 167.777 56.404 167.986 56.7374 168.01 57.0874 167.859 57.33 167.753 57.4988 167.587 57.5841 167.371 57.6699 167.152 57.6588 166.924 57.5564 166.687Z" fill="#9B0000" transform="matrix(1.00542 0 0 1 969 -73.6626)"/><path d="M29.615 103.803C25.2723 105.636 21.3789 108.265 18.0332 111.61 14.6867 114.954 12.0613 118.853 10.2264 123.191 8.32604 127.683 7.36178 132.452 7.36178 137.372 7.36178 142.291 8.32604 147.063 10.2264 151.553 12.0613 155.891 14.6867 159.786 18.0332 163.131 21.3784 166.477 25.2723 169.102 29.615 170.937 34.1038 172.838 38.8734 173.801 43.7921 173.801 48.7097 173.801 53.4822 172.838 57.9742 170.937 62.3122 169.102 66.208 166.477 69.5532 163.131 72.9002 159.785 75.526 155.891 77.3586 151.553 79.2608 147.063 80.2242 142.291 80.2242 137.372 80.2242 132.452 79.2613 127.683 77.3586 123.191 75.526 118.853 72.9002 114.954 69.5532 111.61 66.208 108.265 62.3122 105.636 57.9742 103.803 53.4817 101.906 48.7097 100.939 43.7921 100.939 38.8734 100.939 34.1038 101.906 29.615 103.803ZM30.0826 169.828C25.888 168.055 22.1208 165.515 18.8868 162.279 15.6486 159.047 13.1077 155.276 11.3364 151.085 9.4992 146.743 8.56953 142.129 8.56953 137.373 8.56953 132.617 9.49874 128.003 11.3364 123.658 13.1077 119.464 15.6486 115.697 18.8868 112.463 22.1208 109.227 25.888 106.684 30.0826 104.909 34.4224 103.073 39.0362 102.141 43.7921 102.141 48.5479 102.141 53.1608 103.073 57.5034 104.909 61.7008 106.684 65.4651 109.227 68.7005 112.463 71.9387 115.697 74.4764 119.464 76.2514 123.658 78.0895 128.003 79.0197 132.617 79.0197 137.373 79.0197 142.129 78.0895 146.743 76.2514 151.085 74.4764 155.277 71.9392 159.047 68.7005 162.279 65.4647 165.516 61.7003 168.055 57.5034 169.828 53.1608 171.666 48.5483 172.592 43.7921 172.592 39.0358 172.592 34.4224 171.666 30.0826 169.828Z" fill="#9B0000" transform="matrix(1.00542 0 0 1 969 -73.6626)"/><path d="M33.3046 112.546C30.0973 113.901 27.2147 115.844 24.7462 118.32 22.2703 120.797 20.327 123.674 18.9693 126.882 17.5656 130.205 16.8541 133.732 16.8541 137.368 16.8541 141.006 17.5656 144.534 18.9693 147.857 20.327 151.063 22.2703 153.942 24.7462 156.417 27.2147 158.892 30.0973 160.835 33.3046 162.191 36.6286 163.601 40.1527 164.31 43.7902 164.31 47.4278 164.31 50.9565 163.601 54.2795 162.191 57.4886 160.835 60.3703 158.892 62.844 156.417 65.318 153.942 67.2571 151.065 68.6152 147.857 70.019 144.534 70.7342 141.007 70.7342 137.368 70.7342 133.732 70.019 130.205 68.6152 126.882 67.2571 123.674 65.318 120.797 62.844 118.32 60.3699 115.844 57.4886 113.901 54.2795 112.546 50.9565 111.139 47.4282 110.429 43.7902 110.429 40.1522 110.429 36.6286 111.139 33.3046 112.546ZM33.6251 161.441C30.5142 160.127 27.7183 158.244 25.3175 155.843 22.9182 153.442 21.0367 150.65 19.7201 147.539 18.3597 144.319 17.6671 140.899 17.6671 137.368 17.6671 133.842 18.3597 130.421 19.7201 127.198 21.0362 124.084 22.9182 121.29 25.3175 118.895 27.7183 116.494 30.5147 114.609 33.6251 113.296 36.8449 111.931 40.2633 111.242 43.7907 111.242 47.318 111.242 50.7411 111.931 53.9641 113.296 57.075 114.609 59.8682 116.494 62.2675 118.895 64.6683 121.29 66.5502 124.084 67.8677 127.198 69.2313 130.421 69.9189 133.842 69.9189 137.368 69.9189 140.899 69.2313 144.319 67.8677 147.539 66.5507 150.65 64.6683 153.442 62.2675 155.843 59.8682 158.244 57.075 160.127 53.9641 161.441 50.7411 162.807 47.318 163.495 43.7907 163.495 40.2633 163.495 36.8444 162.807 33.6251 161.441Z" fill="#9B0000" transform="matrix(1.00542 0 0 1 969 -73.6626)"/><path d="M12.8928 146.7C13.1487 146.603 13.3844 146.571 13.6071 146.607 13.8289 146.636 14.0323 146.726 14.2181 146.862 14.4091 147.007 14.5746 147.193 14.7203 147.414 14.866 147.635 14.997 147.896 15.1118 148.198L15.252 148.558 16.5096 148.082C16.5857 148.055 16.6452 148.016 16.688 147.963 16.7337 147.913 16.7586 147.841 16.7586 147.748 16.7609 147.699 16.754 147.62 16.7337 147.518 16.7166 147.414 16.6987 147.324 16.6784 147.259L16.9274 147.164 17.864 149.616 17.615 149.709C17.5854 149.652 17.5472 149.573 17.4946 149.478 17.4448 149.378 17.4047 149.314 17.3715 149.278 17.3064 149.209 17.2437 149.169 17.1842 149.162 17.1243 149.156 17.056 149.168 16.9666 149.199L13.8022 150.405C13.7275 150.436 13.6694 150.472 13.6265 150.522 13.5808 150.565 13.5559 150.637 13.5532 150.738 13.5504 150.805 13.5587 150.891 13.5762 150.998 13.5933 151.104 13.6076 151.183 13.6219 151.233L13.3728 151.328 12.4316 148.854C12.208 148.279 12.1347 147.807 12.2098 147.452 12.2878 147.099 12.5137 146.845 12.8928 146.7ZM13.5177 147.864C13.1838 147.992 12.9574 148.156 12.8476 148.353 12.7342 148.555 12.7471 148.823 12.8771 149.17L12.9772 149.434 14.9454 148.68 14.8928 148.546C14.7628 148.207 14.5843 147.976 14.356 147.854 14.1277 147.732 13.8488 147.738 13.5177 147.864Z" fill="#9B0000" transform="matrix(1.00542 0 0 1 969 -73.6626)"/><path d="M11.6182 139.159 11.6468 139.423C11.4771 139.504 11.306 139.639 11.1358 139.818 10.9675 140 10.8771 140.168 10.8619 140.329 10.855 140.393 10.855 140.486 10.8647 140.607 10.8743 140.726 10.884 140.828 10.8942 140.9L10.9753 141.589 12.8135 141.375 12.7563 140.888C12.742 140.767 12.7171 140.66 12.6742 140.561 12.6341 140.466 12.5681 140.381 12.4755 140.309 12.421 140.264 12.3228 140.223 12.1854 140.184 12.0517 140.15 11.9341 140.129 11.8386 140.125L11.8082 139.861 13.7907 139.63 13.8234 139.895C13.7298 139.914 13.6154 139.961 13.4798 140.036 13.3443 140.108 13.2516 140.168 13.2027 140.224 13.1303 140.307 13.0851 140.398 13.068 140.5 13.0473 140.607 13.0473 140.721 13.0625 140.853L13.1188 141.342 14.4967 141.174C14.6396 141.16 14.7526 141.138 14.8356 141.107 14.9159 141.074 14.9758 141.028 15.0159 140.963 15.0505 140.906 15.0676 140.823 15.0713 140.722 15.0736 140.625 15.0657 140.493 15.0454 140.327 15.0362 140.248 15.0265 140.156 15.0076 140.044 14.9961 139.935 14.9758 139.839 14.956 139.762 14.9357 139.669 14.908 139.583 14.8748 139.504 14.843 139.425 14.8052 139.368 14.7545 139.332 14.6341 139.237 14.4542 139.137 14.2121 139.028 13.9723 138.922 13.7957 138.853 13.6754 138.824L13.6477 138.579 15.1414 138.499 15.6634 142.973 15.4024 143.002C15.3908 142.939 15.3701 142.854 15.3452 142.748 15.3175 142.64 15.2926 142.565 15.2719 142.522 15.2244 142.438 15.1709 142.39 15.1141 142.365 15.057 142.341 14.9827 142.334 14.8974 142.347L11.5324 142.738C11.4522 142.748 11.3862 142.765 11.3364 142.798 11.2866 142.831 11.2465 142.897 11.2161 142.993 11.1958 143.055 11.1801 143.141 11.1704 143.25 11.1612 143.361 11.1552 143.439 11.1552 143.497L10.8923 143.528 10.3975 139.302 11.6182 139.159Z" fill="#9B0000" transform="matrix(1.00542 0 0 1 969 -73.6626)"/><path d="M15.9276 130.278 15.6592 132.155C15.1792 132.375 14.7807 132.576 14.4542 132.763 14.1277 132.949 13.7182 133.187 13.2234 133.477L13.1985 133.648 14.6968 133.865C14.7807 133.874 14.8476 133.872 14.908 133.852 14.9675 133.829 15.0205 133.779 15.0736 133.696 15.0957 133.659 15.1234 133.602 15.151 133.528 15.1815 133.451 15.2064 133.374 15.2262 133.296L15.4881 133.334 15.128 135.859 14.8651 135.822C14.8711 135.763 14.8748 135.677 14.8822 135.564 14.8905 135.453 14.8859 135.376 14.8748 135.326 14.8554 135.244 14.8195 135.18 14.7697 135.139 14.7199 135.102 14.6502 135.078 14.5635 135.059L11.193 134.583C11.1146 134.573 11.045 134.573 10.9896 134.592 10.9315 134.609 10.8762 134.663 10.8209 134.745 10.778 134.809 10.7406 134.894 10.7074 134.987 10.6719 135.079 10.647 135.158 10.6322 135.218L10.3712 135.18 10.7434 132.568 11.0062 132.608C11.0035 132.677 11.0007 132.762 10.9989 132.86 10.9989 132.96 11.0035 133.045 11.0168 133.114 11.0321 133.206 11.0685 133.271 11.1294 133.306 11.1888 133.345 11.2543 133.369 11.33 133.381L12.9371 133.61 12.9564 133.47C12.8209 133.276 12.6604 133.045 12.4695 132.782 12.2785 132.518 12.1181 132.311 11.9949 132.163 11.8192 131.96 11.6809 131.804 11.5785 131.705 11.4729 131.604 11.3779 131.547 11.2949 131.535 11.2539 131.529 11.2202 131.568 11.1888 131.642 11.1538 131.72 11.1248 131.844 11.0915 132.011L10.8278 131.975 11.1248 129.908 11.3848 129.947C11.3779 130.198 11.3954 130.415 11.4328 130.59 11.4729 130.769 11.5559 130.948 11.6809 131.138 11.8621 131.404 12.0198 131.625 12.1554 131.801 12.2882 131.979 12.4621 132.204 12.6728 132.481 12.9661 132.307 13.323 132.094 13.7459 131.85 14.1669 131.604 14.5788 131.358 14.9804 131.112 15.0828 131.047 15.1838 130.974 15.2806 130.891 15.3788 130.805 15.4628 130.704 15.5296 130.598 15.5628 130.545 15.5905 130.484 15.6126 130.417 15.6376 130.348 15.6518 130.289 15.6625 130.239L15.9276 130.278Z" fill="#9B0000" transform="matrix(1.00542 0 0 1 969 -73.6626)"/><path d="M17.7427 125.512 16.7485 127.986 16.5022 127.889C16.5234 127.829 16.5479 127.745 16.5852 127.629 16.6184 127.519 16.6378 127.438 16.6378 127.388 16.6378 127.298 16.6184 127.229 16.5778 127.182 16.5377 127.132 16.4773 127.089 16.3966 127.057L13.2359 125.792C13.1635 125.765 13.0985 125.751 13.0307 125.759 12.9675 125.765 12.9025 125.797 12.8384 125.865 12.7946 125.907 12.7448 125.972 12.6816 126.063 12.6216 126.153 12.5709 126.233 12.5372 126.296L12.2901 126.201 13.2792 123.723 13.5255 123.821C13.5075 123.887 13.4844 123.97 13.4595 124.07 13.4328 124.167 13.4176 124.253 13.413 124.327 13.4079 124.423 13.4273 124.488 13.4738 124.541 13.5204 124.592 13.5808 124.632 13.656 124.656L16.8139 125.923C16.8873 125.957 16.9592 125.969 17.0201 125.96 17.0879 125.952 17.1529 125.918 17.2156 125.85 17.2539 125.812 17.3023 125.75 17.359 125.655 17.4162 125.562 17.4646 125.477 17.4946 125.41L17.7427 125.512Z" fill="#9B0000" transform="matrix(1.00542 0 0 1 969 -73.6626)"/><path d="M18.5147 115.766C18.4828 115.82 18.44 115.897 18.3874 116.008 18.3348 116.11 18.3099 116.22 18.3113 116.336 18.3113 116.441 18.3639 116.551 18.463 116.664 18.5626 116.781 18.7305 116.921 18.9615 117.086L21.7584 119.095 21.407 119.583 16.6475 119.844 18.4778 121.153C18.707 121.319 18.89 121.428 19.0279 121.485 19.1681 121.537 19.2917 121.547 19.3918 121.519 19.4692 121.5 19.5619 121.449 19.6703 121.364 19.781 121.274 19.8626 121.205 19.9193 121.148L20.1351 121.301 18.9329 122.979 18.7162 122.825C18.7618 122.749 18.807 122.658 18.8527 122.552 18.8974 122.446 18.9214 122.342 18.9223 122.251 18.9177 122.14 18.8725 122.031 18.7849 121.931 18.6964 121.826 18.5253 121.683 18.2721 121.503L16.4215 120.174C16.3297 120.109 16.2315 120.059 16.131 120.03 16.0286 119.998 15.9248 119.994 15.8252 120.009 15.7155 120.03 15.6145 120.069 15.519 120.128 15.4227 120.183 15.329 120.258 15.2327 120.351L15.0168 120.195 16.071 118.728 20.2458 118.503 18.7591 117.436C18.5253 117.269 18.3353 117.158 18.1997 117.107 18.0613 117.051 17.9438 117.041 17.8386 117.067 17.7575 117.09 17.6657 117.141 17.5619 117.226 17.4568 117.308 17.3738 117.372 17.3175 117.431L17.1095 117.281 18.3039 115.613 18.5147 115.766Z" fill="#9B0000" transform="matrix(1.00542 0 0 1 969 -73.6626)"/><path d="M26.837 111.81C26.7863 111.858 26.7443 111.906 26.706 111.943 26.6682 111.983 26.63 112.041 26.5829 112.112 26.5276 112.195 26.5124 112.267 26.5331 112.341 26.5529 112.41 26.5829 112.473 26.6304 112.533L26.98 112.969C27.0524 113.055 27.1109 113.128 27.1557 113.176 27.2013 113.231 27.2557 113.297 27.3217 113.373 27.2317 113.619 27.0524 113.93 26.7835 114.296 26.516 114.665 26.2366 114.968 25.9479 115.195 25.6768 115.417 25.389 115.578 25.0874 115.685 24.7831 115.797 24.4755 115.839 24.1633 115.816 23.8548 115.797 23.5504 115.705 23.2516 115.545 22.9537 115.387 22.6802 115.152 22.4284 114.84 22.1955 114.546 22.0245 114.237 21.9244 113.915 21.8183 113.59 21.7888 113.264 21.8262 112.935 21.8635 112.614 21.9714 112.302 22.1499 111.999 22.3311 111.695 22.5769 111.418 22.8873 111.167 23.1012 110.997 23.3194 110.863 23.5403 110.771 23.7639 110.675 23.9576 110.612 24.1227 110.578L24.1702 110.3 24.4012 110.112 25.5278 111.463 25.2949 111.649C24.831 111.342 24.427 111.17 24.0803 111.117 23.7367 111.071 23.4204 111.16 23.134 111.39 22.7978 111.661 22.6549 112.016 22.7083 112.46 22.7628 112.902 22.9956 113.382 23.4102 113.898 23.8515 114.447 24.2887 114.807 24.7176 114.971 25.1455 115.135 25.5255 115.088 25.8557 114.824 26.0083 114.699 26.1259 114.566 26.2117 114.424 26.2919 114.282 26.3417 114.152 26.3597 114.041L25.7524 113.28C25.7017 113.218 25.6486 113.17 25.5919 113.153 25.5338 113.125 25.4591 113.125 25.3636 113.151 25.2903 113.17 25.2078 113.2 25.1174 113.251 25.0247 113.296 24.9458 113.339 24.8914 113.373L24.7249 113.17 26.671 111.601 26.837 111.81Z" fill="#9B0000" transform="matrix(1.00542 0 0 1 969 -73.6626)"/><path d="M38.0245 104.622C37.9622 104.647 37.8746 104.686 37.7589 104.742 37.6454 104.795 37.5555 104.863 37.4895 104.943 37.4194 105.018 37.3862 105.132 37.3899 105.283 37.3927 105.43 37.4356 105.646 37.5075 105.931L37.9691 107.655C38.1047 108.161 38.0397 108.614 37.7782 109.014 37.514 109.416 37.1003 109.693 36.5331 109.847 35.8704 110.018 35.3175 110.009 34.8744 109.808 34.4321 109.607 34.1411 109.24 34.0005 108.707L33.3655 106.339C33.3475 106.26 33.3157 106.2 33.27 106.155 33.2281 106.108 33.1594 106.074 33.0648 106.049 32.9998 106.037 32.9228 106.035 32.8356 106.037 32.7485 106.045 32.677 106.049 32.6258 106.058L32.5571 105.801 34.9883 105.152 35.057 105.407C34.9883 105.43 34.9186 105.456 34.8518 105.49 34.7812 105.52 34.7134 105.556 34.6456 105.599 34.5672 105.646 34.5244 105.708 34.5101 105.777 34.4995 105.847 34.5045 105.917 34.5244 105.998L35.1478 108.331C35.2728 108.791 35.4619 109.1 35.7197 109.253 35.9811 109.41 36.3048 109.431 36.6936 109.331 37.0708 109.227 37.341 109.035 37.4946 108.745 37.6496 108.457 37.6675 108.088 37.5472 107.641L37.1308 106.069C37.0551 105.789 36.98 105.588 36.9043 105.456 36.8292 105.331 36.7439 105.244 36.6493 105.204 36.5788 105.172 36.469 105.156 36.3178 105.156 36.167 105.153 36.0591 105.156 36.001 105.163L35.9304 104.9 37.9567 104.359 38.0245 104.622Z" fill="#9B0000" transform="matrix(1.00542 0 0 1 969 -73.6626)"/><path d="M47.0966 104.281C47.033 104.285 46.9431 104.295 46.8255 104.31 46.7102 104.328 46.6014 104.372 46.5087 104.438 46.4229 104.5 46.3625 104.604 46.3261 104.752 46.2878 104.897 46.268 105.116 46.2652 105.404L46.2177 108.845 45.615 108.839 42.6835 105.079 42.6516 107.332C42.6479 107.611 42.6632 107.824 42.6982 107.97 42.7337 108.118 42.7937 108.222 42.8748 108.291 42.9343 108.345 43.0307 108.387 43.1654 108.427 43.2968 108.47 43.401 108.498 43.4822 108.511L43.4799 108.776 41.4167 108.745 41.4185 108.486C41.5066 108.476 41.6048 108.46 41.7201 108.437 41.8359 108.413 41.9309 108.372 42.0065 108.322 42.0964 108.256 42.1564 108.161 42.1919 108.027 42.2274 107.897 42.2472 107.675 42.2472 107.364L42.28 105.083C42.2818 104.968 42.2666 104.864 42.232 104.762 42.1993 104.66 42.1471 104.574 42.0743 104.501 41.9959 104.422 41.9069 104.36 41.805 104.316 41.7049 104.273 41.5864 104.233 41.4591 104.208L41.4591 103.939 43.2659 103.966 45.8373 107.262 45.864 105.435C45.8668 105.146 45.8525 104.931 45.8165 104.785 45.7792 104.643 45.7201 104.538 45.638 104.469 45.5758 104.419 45.4776 104.372 45.3526 104.331 45.2244 104.29 45.1206 104.267 45.0422 104.247L45.0496 103.991 47.1017 104.019 47.0966 104.281Z" fill="#9B0000" transform="matrix(1.00542 0 0 1 969 -73.6626)"/><path d="M52.273 110.026 49.6902 109.361 49.757 109.101C49.8147 109.114 49.9032 109.133 50.0208 109.151 50.1361 109.173 50.2182 109.18 50.2689 109.173 50.3574 109.163 50.4215 109.132 50.4672 109.084 50.5101 109.041 50.5428 108.974 50.5649 108.894L51.4195 105.595C51.4365 105.522 51.4388 105.451 51.4268 105.386 51.4116 105.324 51.3687 105.263 51.2936 105.208 51.2479 105.17 51.1778 105.131 51.0796 105.078 50.9841 105.03 50.8993 104.99 50.8255 104.963L50.8914 104.708 53.4743 105.377 53.4065 105.632C53.3415 105.622 53.2576 105.608 53.1561 105.595 53.0552 105.582 52.968 105.577 52.8947 105.582 52.802 105.588 52.7342 105.62 52.6885 105.67 52.6466 105.724 52.6138 105.788 52.594 105.862L51.7404 109.159C51.7201 109.236 51.7201 109.308 51.7321 109.37 51.7473 109.431 51.793 109.494 51.8658 109.551 51.905 109.583 51.9784 109.621 52.078 109.669 52.179 109.711 52.2661 109.746 52.3367 109.771L52.273 110.026Z" fill="#9B0000" transform="matrix(1.00542 0 0 1 969 -73.6626)"/><path d="M61.7303 109.382C61.6606 109.355 61.591 109.332 61.5223 109.32 61.4513 109.305 61.3734 109.301 61.2917 109.305 61.1811 109.309 61.0856 109.327 61.01 109.36 60.9325 109.394 60.844 109.442 60.7462 109.52 60.6115 109.626 60.4179 109.78 60.1674 109.988 59.9161 110.193 59.6279 110.419 59.306 110.684 59.0196 110.918 58.7056 111.18 58.3667 111.463 58.0259 111.741 57.6994 112.016 57.3881 112.271L56.7905 111.954C56.8735 111.12 56.9592 110.278 57.0418 109.419 57.1289 108.56 57.187 107.963 57.2124 107.624 57.2202 107.502 57.2175 107.403 57.2 107.331 57.182 107.254 57.1446 107.167 57.0787 107.062 57.0312 106.992 56.986 106.932 56.9422 106.888 56.8984 106.848 56.8361 106.798 56.7559 106.741L56.8822 106.506 59.1797 107.724 59.0593 107.954C58.8264 107.864 58.6613 107.807 58.5677 107.797 58.4723 107.785 58.4169 107.8 58.3911 107.843 58.3805 107.866 58.3722 107.892 58.3653 107.919 58.3588 107.946 58.3519 107.986 58.3413 108.04 58.3118 108.25 58.2772 108.597 58.2315 109.089 58.1887 109.579 58.1158 110.328 58.0107 111.322 58.4806 110.928 58.8739 110.594 59.194 110.319 59.5112 110.045 59.793 109.8 60.0333 109.59 60.1527 109.486 60.2597 109.39 60.3501 109.294 60.4428 109.203 60.5036 109.132 60.5322 109.073 60.5668 109.01 60.5484 108.932 60.475 108.838 60.4059 108.749 60.2505 108.623 60.0097 108.471L60.1347 108.233 61.8571 109.143 61.7303 109.382Z" fill="#9B0000" transform="matrix(1.00542 0 0 1 969 -73.6626)"/><path d="M66.9533 114.966 66.7582 114.785C66.8366 114.607 66.8795 114.395 66.8873 114.15 66.8965 113.907 66.8559 113.718 66.7642 113.587 66.7259 113.528 66.6609 113.459 66.5751 113.379 66.4903 113.29 66.4174 113.226 66.3602 113.17L65.8502 112.704 64.6023 114.07 64.9615 114.407C65.0519 114.486 65.1442 114.551 65.2373 114.595 65.33 114.641 65.4384 114.665 65.5564 114.656 65.6261 114.652 65.7261 114.621 65.8516 114.559 65.9775 114.498 66.0808 114.438 66.1587 114.378L66.351 114.554 65.0044 116.031 64.808 115.853C64.8633 115.776 64.9187 115.665 64.9731 115.522 65.0293 115.377 65.0589 115.268 65.0589 115.194 65.0589 115.087 65.034 114.988 64.9814 114.897 64.927 114.807 64.8509 114.718 64.7531 114.628L64.3916 114.3 63.4573 115.323C63.36 115.429 63.2922 115.521 63.2465 115.598 63.2073 115.674 63.1921 115.75 63.2073 115.822 63.2166 115.89 63.2571 115.966 63.318 116.04 63.383 116.117 63.4748 116.212 63.6007 116.328 63.6588 116.378 63.7284 116.443 63.8114 116.516 63.8944 116.588 63.9701 116.647 64.0397 116.695 64.1149 116.752 64.1937 116.799 64.2671 116.837 64.3464 116.877 64.4114 116.892 64.4723 116.889 64.6231 116.88 64.8278 116.837 65.0787 116.761 65.33 116.683 65.5122 116.62 65.6191 116.564L65.7976 116.728 64.7236 117.767 61.4024 114.734 61.5836 114.539C61.6311 114.577 61.7012 114.627 61.7916 114.693 61.8815 114.756 61.9466 114.796 61.995 114.813 62.0821 114.846 62.1555 114.85 62.2126 114.832 62.2735 114.81 62.3339 114.765 62.3893 114.701L64.6761 112.203C64.7314 112.144 64.766 112.085 64.7831 112.031 64.802 111.973 64.7886 111.897 64.7485 111.798 64.7245 111.741 64.6779 111.669 64.6138 111.579 64.5507 111.489 64.5032 111.426 64.4677 111.382L64.6424 111.189 67.7838 114.056 66.9533 114.966Z" fill="#9B0000" transform="matrix(1.00542 0 0 1 969 -73.6626)"/><path d="M69.4467 124.397 68.4474 122.844C68.6839 122.315 68.8666 121.884 68.9924 121.552 69.1202 121.219 69.2585 120.817 69.4061 120.35L69.3106 120.201 68.0914 120.99C68.0199 121.031 67.9701 121.08 67.9406 121.137 67.9092 121.193 67.9023 121.268 67.9175 121.363 67.9254 121.404 67.9443 121.473 67.9798 121.561 68.013 121.646 68.0457 121.72 68.0725 121.777L67.8497 121.92 66.4566 119.761 66.6793 119.615C66.7204 119.668 66.7757 119.737 66.8453 119.823 66.9168 119.906 66.9685 119.963 67.0086 119.989 67.0861 120.043 67.1557 120.066 67.2161 120.063 67.2797 120.058 67.3485 120.031 67.4181 119.983L70.2703 118.148C70.3349 118.102 70.3847 118.055 70.4146 118.005 70.4511 117.955 70.4557 117.877 70.4405 117.777 70.4225 117.699 70.3976 117.613 70.3593 117.517 70.3247 117.426 70.2952 117.351 70.2721 117.3L70.4953 117.157 71.9567 119.42C72.2823 119.93 72.4511 120.365 72.4644 120.731 72.4737 121.094 72.3183 121.378 71.9973 121.589 71.7137 121.772 71.4315 121.837 71.1552 121.787 70.8767 121.734 70.5834 121.573 70.2749 121.306 70.1891 121.539 70.0937 121.815 69.9867 122.129 69.8751 122.44 69.7681 122.764 69.6593 123.095 69.6219 123.2 69.5841 123.342 69.544 123.511 69.5011 123.683 69.4942 123.813 69.5209 123.908 69.5371 123.961 69.5569 124.021 69.5942 124.096 69.6274 124.169 69.6524 124.22 69.6676 124.249L69.4467 124.397ZM71.2037 120.529C71.4748 120.354 71.6201 120.151 71.6477 119.918 71.6763 119.689 71.5998 119.437 71.4195 119.159L71.2733 118.934 69.5878 120.023 69.7252 120.24C69.9037 120.518 70.1167 120.687 70.3602 120.744 70.606 120.802 70.8878 120.731 71.2037 120.529Z" fill="#9B0000" transform="matrix(1.00542 0 0 1 969 -73.6626)"/><path d="M70.7918 128.34C70.6973 128.061 70.6447 127.788 70.6323 127.525 70.6199 127.261 70.6323 127.03 70.6715 126.832L70.3708 126.683 70.2809 126.411 71.9147 125.823 72.0074 126.102C71.8719 126.217 71.7372 126.35 71.5952 126.502 71.455 126.656 71.3402 126.822 71.2447 126.994 71.1456 127.168 71.0778 127.356 71.0427 127.55 71.0091 127.74 71.0257 127.944 71.0981 128.161 71.1954 128.451 71.3397 128.649 71.5325 128.759 71.7252 128.866 71.9314 128.886 72.1472 128.812 72.3238 128.755 72.4497 128.638 72.5244 128.466 72.5996 128.295 72.6341 128.053 72.63 127.751 72.63 127.55 72.63 127.367 72.6272 127.199 72.6254 127.03 72.63 126.873 72.6346 126.723 72.6549 126.376 72.7531 126.089 72.9316 125.867 73.1073 125.642 73.3383 125.478 73.6192 125.39 73.7949 125.328 73.9779 125.308 74.167 125.332 74.357 125.351 74.5433 125.419 74.7218 125.521 74.8915 125.623 75.051 125.771 75.2009 125.963 75.3545 126.159 75.472 126.384 75.5574 126.643 75.6431 126.897 75.6869 127.145 75.692 127.39 75.6975 127.637 75.6851 127.83 75.6584 127.983L75.9143 128.113 76.0088 128.394 74.4631 128.943 74.3704 128.665C74.5133 128.543 74.6586 128.41 74.8025 128.265 74.945 128.12 75.0593 127.983 75.1414 127.846 75.2304 127.699 75.2857 127.544 75.3162 127.385 75.342 127.223 75.3268 127.048 75.2636 126.862 75.1861 126.632 75.0575 126.467 74.8799 126.359 74.6987 126.255 74.5133 126.234 74.3242 126.301 74.1439 126.36 74.0167 126.475 73.9461 126.639 73.8728 126.806 73.8382 127.041 73.8428 127.337 73.841 127.516 73.8428 127.697 73.8456 127.88 73.8456 128.063 73.8428 128.226 73.8359 128.372 73.8234 128.722 73.7358 129.014 73.58 129.245 73.425 129.481 73.1903 129.65 72.8762 129.752 72.6812 129.817 72.4732 129.836 72.2592 129.806 72.0434 129.775 71.8479 129.702 71.674 129.586 71.4813 129.46 71.313 129.296 71.164 129.093 71.0183 128.891 70.8924 128.639 70.7918 128.34Z" fill="#9B0000" transform="matrix(1.00542 0 0 1 969 -73.6626)"/><path d="M72.3639 135.724 72.0928 133.073 72.3533 133.046C72.3639 133.103 72.381 133.191 72.4013 133.311 72.4243 133.428 72.4441 133.508 72.469 133.548 72.5092 133.631 72.559 133.686 72.6198 133.707 72.6752 133.732 72.7476 133.739 72.832 133.732L76.2182 133.382C76.2957 133.374 76.3625 133.353 76.4197 133.318 76.4723 133.282 76.5152 133.22 76.5401 133.132 76.559 133.077 76.5733 132.992 76.5848 132.883 76.5982 132.775 76.6051 132.682 76.6051 132.606L76.8712 132.582 77.1433 135.232 76.8818 135.26C76.8666 135.194 76.849 135.109 76.8264 135.012 76.8043 134.913 76.7766 134.827 76.7453 134.761 76.7079 134.678 76.6563 134.623 76.5926 134.601 76.5295 134.578 76.4543 134.566 76.3777 134.578L72.9961 134.927C72.9122 134.937 72.8463 134.956 72.7891 134.994 72.7374 135.03 72.6973 135.092 72.6696 135.18 72.6544 135.23 72.6447 135.311 72.6341 135.42 72.6268 135.532 72.6249 135.625 72.6295 135.698L72.3639 135.724Z" fill="#9B0000" transform="matrix(1.00542 0 0 1 969 -73.6626)"/><path d="M75.3097 143.485 75.3411 143.223C75.5541 143.18 75.7824 143.095 76.0328 142.969 76.285 142.843 76.4271 142.718 76.4603 142.59 76.4755 142.522 76.4949 142.429 76.5156 142.327 76.5336 142.221 76.5488 142.133 76.5557 142.062L76.5737 141.899 72.8384 141.456C72.7573 141.449 72.6839 141.451 72.6198 141.475 72.5539 141.499 72.4986 141.549 72.4515 141.631 72.4294 141.68 72.3989 141.756 72.3639 141.863 72.3284 141.973 72.3035 142.063 72.2864 142.137L72.0227 142.107 72.3395 139.438 72.5996 139.468C72.5996 139.535 72.5996 139.63 72.5968 139.746 72.594 139.868 72.5996 139.947 72.6148 139.992 72.6397 140.083 72.6798 140.151 72.7379 140.185 72.7932 140.225 72.8652 140.243 72.9491 140.256L76.7171 140.702 76.7361 140.544C76.7457 140.47 76.7513 140.377 76.7563 140.27 76.7642 140.165 76.767 140.079 76.767 140.004 76.7642 139.875 76.6563 139.716 76.44 139.538 76.226 139.356 76.0236 139.219 75.8281 139.126L75.8576 138.862 77.2258 139.026 76.6766 143.649 75.3097 143.485Z" fill="#9B0000" transform="matrix(1.00542 0 0 1 969 -73.6626)"/><path d="M73.7474 151.802C73.7667 151.723 73.7792 151.647 73.7847 151.58 73.7893 151.509 73.7875 151.438 73.7741 151.369 73.7598 151.26 73.7243 151.152 73.674 151.055 73.6205 150.953 73.5587 150.849 73.4886 150.743 73.3406 150.532 73.1774 150.307 73.0008 150.066 72.8204 149.825 72.6268 149.562 72.4137 149.278 72.2754 149.094 72.1684 148.971 72.0831 148.905 71.995 148.845 71.8331 148.768 71.5979 148.679L70.9629 148.435C70.8878 148.405 70.8121 148.392 70.7471 148.4 70.6793 148.409 70.6125 148.443 70.5461 148.512 70.5161 148.544 70.4704 148.608 70.398 148.717 70.3302 148.822 70.2823 148.905 70.2597 148.957L70.0084 148.862 70.9735 146.352 71.2216 146.445C71.2013 146.508 71.1797 146.596 71.1483 146.71 71.1179 146.829 71.1027 146.912 71.1008 146.962 71.1054 147.054 71.1313 147.123 71.1741 147.176 71.2216 147.221 71.2839 147.266 71.3623 147.297L72.1536 147.598C72.2233 147.625 72.2827 147.646 72.339 147.666 72.3907 147.681 72.4386 147.693 72.4787 147.693 72.5244 147.693 72.5843 147.692 72.6613 147.678 72.7374 147.666 72.8352 147.65 72.956 147.63 73.3028 147.578 73.6339 147.529 73.9452 147.471 74.2592 147.419 74.5525 147.365 74.8283 147.314 74.9694 147.29 75.0916 147.252 75.1903 147.205 75.2904 147.162 75.3757 147.108 75.449 147.051 75.5016 147.003 75.5527 146.948 75.6007 146.868 75.6473 146.796 75.6865 146.727 75.7165 146.665L75.9636 146.763 74.9791 149.33 74.7301 149.234C74.8158 148.994 74.8583 148.827 74.8666 148.737 74.8735 148.644 74.8513 148.584 74.8029 148.57 74.7808 148.559 74.7273 148.559 74.648 148.559 74.5677 148.566 74.4377 148.58 74.262 148.6 74.0978 148.619 73.8705 148.654 73.5763 148.695 73.283 148.745 72.9357 148.802 72.5401 148.874 73.0215 149.517 73.3605 149.958 73.5541 150.204 73.7524 150.45 73.8779 150.586 73.9332 150.609 74.0061 150.633 74.0757 150.614 74.149 150.54 74.2196 150.469 74.297 150.336 74.3819 150.144L74.6281 150.237 73.9959 151.897 73.7474 151.802Z" fill="#9B0000" transform="matrix(1.00542 0 0 1 969 -73.6626)"/><path d="M68.5737 137.371C68.5737 151.054 57.4817 162.15 43.7962 162.15 30.1079 162.15 19.0132 151.054 19.0132 137.371 19.0132 123.681 30.1079 112.589 43.7962 112.589 57.4813 112.589 68.5737 123.681 68.5737 137.371ZM40.1577 116.597C39.0759 116.597 38.1992 117.476 38.1992 118.555L38.1992 121.091C36.1568 121.56 34.0807 122.321 32.0069 123.369 29.6551 124.553 27.3378 126.101 25.3028 127.845 24.5091 128.524 24.4164 129.719 25.0966 130.512 25.7773 131.305 26.9689 131.396 27.7653 130.72 30.9505 127.992 34.6479 125.973 38.1992 124.998L38.1992 129.346C35.7349 130.148 33.3254 131.51 31.0164 133.415 28.4211 135.562 26.0033 138.34 23.8322 141.68 23.626 142 23.525 142.358 23.525 142.712 23.525 143.333 23.8322 143.938 24.3897 144.302 25.2654 144.869 26.4372 144.621 27.0044 143.746 28.9675 140.721 31.1266 138.231 33.4259 136.335 35.7699 134.399 38.3657 133.073 40.6364 132.592 41.6486 132.375 42.1126 131.441 42.1126 130.797 42.1126 130.696 42.1126 130.34 42.1126 129.806 42.1126 126.871 42.1126 118.619 42.1126 118.619L42.1126 118.555C42.1126 117.476 41.2368 116.597 40.1577 116.597ZM45.4716 118.555 45.4716 118.619C45.4716 118.619 45.4716 126.872 45.4716 129.806 45.4716 130.34 45.4716 130.696 45.4716 130.797 45.4716 131.441 45.9396 132.375 46.9505 132.592 49.223 133.072 51.8165 134.399 54.1605 136.335 56.4598 138.231 58.6198 140.721 60.5811 143.746 61.1483 144.621 62.3229 144.869 63.1995 144.302 63.7584 143.938 64.06 143.332 64.06 142.712 64.06 142.358 63.9627 142 63.7538 141.68 61.5832 138.34 59.1654 135.562 56.5691 133.415 54.2634 131.51 51.8529 130.148 49.3876 129.346L49.3876 124.998C52.9371 125.973 56.6378 127.992 59.8225 130.72 60.6161 131.396 61.8105 131.306 62.4912 130.512 63.1718 129.72 63.0755 128.524 62.2823 127.845 60.2495 126.101 57.93 124.553 55.5799 123.369 53.5071 122.321 51.431 121.56 49.3876 121.091L49.3876 118.555C49.3876 117.476 48.5119 116.597 47.4319 116.597 46.3473 116.597 45.4716 117.476 45.4716 118.555ZM59.1958 149.964C58.3727 148.049 57.4388 146.28 56.4169 144.714 55.3448 143.064 54.173 141.625 52.9348 140.443 51.6053 139.173 50.1836 138.186 48.7167 137.509 47.7464 137.063 46.7554 136.753 45.7519 136.578L45.7519 135.427C45.7519 134.347 44.8753 133.467 43.7925 133.467 42.7134 133.467 41.8359 134.347 41.8359 135.427L41.8359 136.578C40.8315 136.753 39.8396 137.063 38.8739 137.509 37.4047 138.186 35.9867 139.173 34.6507 140.443 33.4134 141.625 32.2407 143.064 31.1718 144.714 30.1508 146.28 29.2142 148.049 28.3938 149.964 27.9816 150.926 28.4257 152.039 29.3844 152.455 30.3459 152.864 31.4582 152.418 31.8718 151.458 33.3549 147.991 35.2207 145.132 37.2668 143.183 38.7374 141.776 40.2689 140.863 41.8359 140.449L41.8359 143.528C41.8359 144.588 41.0574 145.002 40.6978 145.221 40.5825 145.29 40.3348 145.439 40.2186 145.512 39.4909 145.983 38.6558 146.711 37.8764 147.713 36.469 149.518 35.371 151.978 34.7923 154.641 34.5677 155.666 35.2152 156.67 36.2371 156.893 37.2608 157.114 38.2652 156.471 38.4893 155.447 38.9528 153.327 39.7921 151.404 40.8605 150.039 41.4028 149.342 42.5096 148.168 43.7921 148.168 45.0773 148.168 46.1822 149.342 46.7273 150.039 47.7948 151.404 48.6378 153.327 49.099 155.447 49.3208 156.471 50.3288 157.114 51.348 156.893 52.369 156.671 53.0201 155.666 52.7964 154.641 52.2168 151.978 51.1197 149.518 49.7114 147.713 48.9311 146.71 48.0946 145.982 47.372 145.512 47.2525 145.439 47.0053 145.291 46.8878 145.221 46.5313 145.002 45.7515 144.588 45.7515 143.528L45.7515 140.449C47.3194 140.863 48.8481 141.776 50.3215 143.183 52.3648 145.133 54.2306 147.992 55.7164 151.458 56.1278 152.418 57.2396 152.864 58.2011 152.455 59.1598 152.039 59.6076 150.926 59.1958 149.964Z" fill="#9B0000" transform="matrix(1.00542 0 0 1 969 -73.6626)"/><path d="M133.771 146.204C133.438 146.238 133.105 146.271 132.773 146.304 131.845 146.58 130.833 146.957 129.776 147.303 128.695 147.658 127.135 148.251 125.984 147.402 125.902 147.3 125.946 147.378 125.883 147.203 126.915 146.1 126.892 145.443 128.479 144.706 128.502 143.616 128.926 142.315 128.38 141.611 128.496 139.973 130.426 140.769 131.873 140.413 132.761 140.196 133.845 139.869 134.571 139.416 135.421 138.881 136.28 137.711 136.667 136.72 136.825 136.312 136.642 135.48 136.868 135.123 136.868 134.855 136.868 134.589 136.868 134.323 136.791 134.173 134.318 133.36 133.971 133.125 133.717 132.954 133.081 132.422 132.971 132.127 132.876 131.863 132.988 131.602 132.873 131.427 132.751 131.177 132.646 131.2 132.473 131.028 131.974 131.074 131.829 131.242 131.61 131.44 131.542 131.501 131.417 131.549 131.375 131.627 131.332 131.705 131.375 131.794 131.375 131.88 131.375 132.694 131.375 133.509 131.375 134.322 131.134 134.858 130.052 135.173 129.579 135.519 129.178 135.954 128.779 136.385 128.38 136.818 127.786 136.767 127.74 136.56 127.382 136.319 126.517 132.279 126.144 128.912 123.387 126.835 122.725 126.335 122.214 125.337 121.391 125.037 121.099 125.836 120.722 126.667 120.497 127.477 120.444 127.666 120.522 127.827 120.472 128.02 119.982 129.872 119.595 131.762 119.095 133.723 118.976 134.185 118.405 136.705 118.495 137.119 118.927 139.11 119.485 141.644 119.993 143.509 120.229 144.379 120.046 145.005 120.292 145.804 120.741 147.256 122.028 150.998 123.088 151.695 124.279 152.478 126.237 152.848 127.781 152.194 128.253 151.993 128.666 151.319 128.978 151.195 129.478 151.195 129.978 151.195 130.476 151.195 131.942 150.797 133.406 150.399 134.871 149.999 135.395 149.781 136.693 149.081 137.064 148.7 137.595 148.159 137.635 147.095 138.265 146.504 138.277 145.786 138.205 145.49 137.965 145.106 136.117 145.148 135.04 145.726 133.771 146.204Z" fill="#9B0000" transform="matrix(1.00542 0 0 1 969 -73.6626)"/><path d="M111.707 133.125C111.696 131.793 111.734 130.272 111.506 129.23 111.318 128.366 111.711 127.255 111.408 126.536 110.491 124.378 106.578 122.463 104.418 121.345 103.587 120.913 103.579 120.08 102.421 119.846 102.161 119.795 101.617 120.375 101.623 120.547 101.568 121.924 102.613 122.46 103.32 123.34 103.751 123.876 104.009 124.494 104.418 125.038 105.06 125.888 106.138 126.628 106.515 127.733 107.126 129.515 107.147 134.017 106.715 136.02 106.715 136.688 106.715 137.351 106.715 138.016 106.648 138.783 106.582 139.547 106.515 140.315 105.956 140.104 105.592 139.55 105.016 139.315 104.584 139.249 104.151 139.182 103.72 139.117 103.318 138.867 103.055 138.401 102.523 138.216 101.92 138.008 101.365 138.241 100.724 138.016 100.031 137.773 99.8152 137.218 98.7278 137.218 98.5092 137.25 98.0919 137.582 98.1287 137.717 98.274 138.563 98.9837 138.983 99.2272 139.714 99.2272 139.981 99.2272 140.246 99.2272 140.512 99.3877 141.142 99.5708 142.006 99.7248 142.709 99.977 143.851 99.2424 144.503 99.0257 145.206 98.1472 148.063 97.6372 150.946 95.402 152.426 95.3153 152.484 95.2512 152.542 95.1931 152.644 95.1414 152.732 95.129 152.978 95.1262 153.034 95.069 154.678 94.8186 157.881 96.3312 158.385 96.3847 158.426 96.4801 158.486 96.4801 158.486 96.6379 158.557 97.983 158.55 98.2283 158.486 98.7647 158.209 99.7266 156.817 100.323 156.389 101.225 155.744 102.209 155.322 103.12 154.69 103.287 154.491 103.453 154.292 103.619 154.091 104.536 153.409 105.427 152.702 106.214 151.894 106.316 151.844 106.453 151.829 106.514 151.894 106.59 152.228 106.731 152.978 106.514 153.292 106.495 155.009 106.311 156.235 107.014 157.286 107.402 157.298 107.981 157.341 108.211 157.188 108.995 156.895 109.378 155.574 109.709 154.79 110.565 152.772 110.768 150.396 111.307 148.001 111.341 147.169 111.372 146.338 111.408 145.505 111.9 143.257 111.806 140.5 111.806 137.916 111.84 136.885 111.874 135.853 111.906 134.822 111.803 134.333 111.71 133.724 111.707 133.125ZM106.514 147.602C106.514 148.034 106.514 148.468 106.514 148.899 106.327 149.312 105.401 149.64 105.016 149.898 104.683 150.124 104.297 150.528 103.918 150.696 103.214 151.009 102.622 151.021 102.022 151.397 101.479 151.735 100.874 152.239 100.323 152.593 99.9143 152.857 98.4857 153.43 97.8276 152.994 97.7285 152.959 97.6275 152.927 97.5288 152.894 97.6021 151.819 98.3787 151.329 98.8265 150.597 99.7022 149.166 100.847 147.99 101.722 146.604 101.788 146.37 101.856 146.138 101.921 145.904 102.243 145.414 102.889 145.005 103.12 144.408 104.869 144.444 105.793 143.561 106.116 142.209 106.374 142.229 106.453 142.254 106.614 142.31 106.637 143.426 106.652 144.718 106.614 145.804 106.596 146.342 106.741 147.244 106.514 147.602Z" fill="#9B0000" transform="matrix(1.00542 0 0 1 969 -73.6626)"/><path d="M239.404 128.831C239.722 129.26 240.291 129.595 240.602 130.029 241.649 131.491 241.923 134.508 242.5 136.421 244.293 136.403 245.056 134.845 245.893 133.824 245.891 131.347 243.356 127.54 241.899 126.536 241.059 125.955 240.057 125.705 239.204 125.137 238.304 124.539 237.806 123.679 236.708 123.239 236.558 123.194 236.228 123.543 236.208 123.639 236.208 124.171 236.208 124.704 236.208 125.237 236.574 125.537 236.942 125.836 237.306 126.135 238.015 127.078 238.704 127.893 239.404 128.831Z" fill="#9B0000" transform="matrix(1.00542 0 0 1 969 -73.6626)"/><path d="M260.77 131.627C262.322 129.619 264.397 127.765 265.363 125.238 265.64 124.515 266.841 122.755 266.062 121.742 265.718 121.23 264.752 121.536 264.064 121.345 263.756 121.257 263.528 120.923 263.267 120.845 262.81 120.707 262.339 121.058 262.068 121.144 260.809 121.546 259.724 121.674 258.573 122.142 258.062 122.35 256.603 123.232 255.978 122.841 255.878 122.809 255.777 122.776 255.677 122.742 255.785 120.824 257.135 119.694 257.776 118.15 257.961 117.701 258.532 116.509 258.174 115.953 258.119 115.059 257.191 114.442 256.676 113.956 256.512 113.819 255.763 114.07 255.777 114.356 255.815 116.897 254.746 119.651 253.283 120.644 252.814 120.961 252.41 120.824 251.785 121.046 250.796 121.39 249.752 122.392 248.59 121.543 247.994 121.545 247.915 121.639 247.591 121.844 247.698 122.837 248.284 123.672 249.088 123.94 249.291 124.052 250.007 123.952 250.487 123.94 250.468 124.72 249.854 125.392 249.388 125.737 249.388 126.07 249.417 126.33 249.489 126.537 250.565 126.737 250.769 126.175 251.785 126.136 251.619 127.271 250.705 127.807 250.187 128.633 249.507 128.77 248.515 128.863 247.891 128.933 247.836 128.938 247.785 129.009 247.791 129.032 247.808 129.791 248.098 130.059 248.59 130.331 248.319 131.373 247.475 132.099 246.89 132.926 246.663 133.248 245.995 133.693 246.392 134.324 246.525 134.557 246.695 134.572 246.991 134.623 247.997 133.655 249.706 133.201 250.186 131.728 251.771 131.827 251.769 132.209 252.682 132.826 252.632 133.393 252.375 133.966 252.083 134.324 252.079 134.704 252.098 135.077 252.184 135.323 253.374 135.267 255.161 133.697 255.977 134.222 256.044 134.222 256.11 134.222 256.177 134.222 256.033 134.895 255.278 134.914 254.78 135.222 253.718 135.88 252.453 136.306 251.284 136.919 249.704 137.749 247.954 138.685 246.492 139.615 246.06 139.749 245.626 139.88 245.194 140.014 242.816 141.423 240.563 143.163 238.105 144.506 238.041 144.68 238.086 144.605 238.006 144.707 238.011 145.016 238.041 145.219 238.105 145.406 241.149 146.041 243.579 144.638 245.694 143.81 248.545 142.692 251.248 140.836 253.581 139.117 254.341 138.557 254.889 137.632 255.677 137.12 256.293 136.721 256.835 136.56 257.375 136.121 257.541 136.121 257.709 136.121 257.876 136.121 257.702 136.732 257.269 136.972 256.976 137.42 256.875 137.685 256.777 137.952 256.677 138.217 256.144 138.717 255.611 139.217 255.08 139.715 254.826 140.051 254.607 140.562 254.281 140.814 253.48 141.43 252.596 142.018 251.985 142.811 251.902 142.949 252.04 143.485 252.085 143.81 253.677 143.68 254.607 142.648 255.778 142.111 256.499 141.781 257.282 141.714 257.976 141.313 258.438 141.044 258.673 140.513 259.074 140.215 261.017 138.773 262.773 137.649 262.369 134.124 261.876 133.949 261.16 133.92 260.771 133.626 260.072 133.626 259.373 133.626 258.673 133.626 259.006 132.461 260.142 132.441 260.77 131.627ZM257.574 130.33C257.191 130.842 256.899 131.46 256.578 132.028 256.318 132.007 256.238 131.982 256.078 131.927 255.785 130.458 255.676 129.33 255.18 128.232 254.83 128.167 254.651 128.115 254.38 128.334 253.791 128.826 254.216 130.134 253.482 130.728 253.193 131.028 252.432 129.905 252.185 129.73 252.368 127.599 254.423 126 255.479 124.638 257.399 124.678 258.776 125.627 260.571 125.736 260.517 128.098 258.619 128.938 257.574 130.33Z" fill="#9B0000" transform="matrix(1.00542 0 0 1 969 -73.6626)"/><path d="M236.209 139.515C236.468 140.106 237.1 140.773 237.307 141.413 237.726 141.492 237.934 141.448 238.406 141.413 239.178 140.61 239.658 139.887 239.904 138.514 240.114 137.334 237.703 134.394 236.908 134.123 236.711 133.989 236.257 134.01 235.909 134.023 235.755 134.703 236.136 136.782 236.209 137.517 236.209 138.183 236.209 138.85 236.209 139.515Z" fill="#9B0000" transform="matrix(1.00542 0 0 1 969 -73.6626)"/><path d="M253.681 145.307C252.91 146.308 249.735 146.252 248.389 146.804 246.543 147.56 244.574 148.187 242.698 148.999 241.452 149.54 240.155 150.287 238.904 150.797 238.571 150.863 238.239 150.93 237.905 150.998 237.37 151.22 236.787 151.783 236.308 151.996 235.843 152.029 235.376 152.062 234.911 152.094 234.412 152.323 234.159 152.809 233.813 153.195 233.842 154.98 234.765 155.496 235.209 156.504 235.298 156.707 235.201 156.915 235.411 157.189 235.563 157.352 236.017 157.528 236.307 157.587 237.014 157.731 238.019 157.096 238.504 156.887 240.375 156.079 241.762 154.705 243.396 153.693 243.982 153.329 244.874 152.9 245.492 152.693 246.213 152.452 246.75 152.662 247.39 152.393 248.55 151.91 248.06 151.125 249.786 151.696 249.857 151.962 250.026 152.182 250.084 152.393 250.28 153.091 249.857 153.942 249.985 154.491 250.124 155.085 250.315 155.21 250.285 155.99 250.05 156.241 249.963 156.681 249.686 156.887 248.833 157.526 247.45 157.782 246.291 158.085 245.499 158.292 244.508 157.747 243.895 158.186 243.828 158.186 243.762 158.186 243.695 158.186 243.716 158.527 243.743 158.696 243.895 158.885 244.19 159.79 244.749 159.482 245.693 159.783 246.614 160.078 247.6 161.385 249.188 160.481 249.522 160.291 249.644 159.812 250.084 159.684 250.866 159.457 251.583 159.825 252.082 159.383 252.553 159.148 252.639 158.552 252.879 158.086 253.093 157.676 253.451 157.055 253.58 156.589 253.766 155.906 253.403 155.284 253.281 154.891 253.214 154.492 253.148 154.092 253.08 153.693 252.704 152.768 252.104 152.259 252.082 150.898 252.07 150.74 252.246 150.552 252.381 150.497 253.496 150.228 254.592 149.971 256.076 150 256.554 149.515 257.205 149.193 257.572 148.601 257.813 148.217 257.816 147.674 258.072 147.303 258.071 146.344 257.732 146.249 257.373 145.706 255.934 145.683 255.06 145.295 253.681 145.307Z" fill="#9B0000" transform="matrix(1.00542 0 0 1 969 -73.6626)"/><path d="M217.537 132.726C217.822 132.295 217.826 131.922 218.237 131.627 218.549 131.414 218.142 130.299 217.938 130.229 214.204 129.389 213.881 132.144 211.947 133.625 211.062 134.305 210.059 134.742 209.152 135.422 209.085 135.422 209.018 135.422 208.952 135.422 208.589 133.429 208.852 130.809 208.852 128.632 208.852 127.767 208.852 126.902 208.852 126.037 208.923 125.858 209.266 125.632 209.351 125.438 209.696 124.646 209.544 123.377 209.152 122.741 208.613 121.866 207.486 121.636 206.655 121.046 206.218 120.732 205.887 120.167 205.358 119.947 204.541 119.606 203.651 119.931 202.963 119.447 202.516 119.515 202.368 119.668 202.063 119.846 201.186 122.143 203.343 125.373 203.96 127.035 204.495 128.473 204.515 132.962 204.161 134.622 203.891 135.875 204.33 137.744 203.66 138.615 203.281 139.137 200.012 140.244 199.167 140.613 198.465 140.92 197.642 141.353 196.871 141.611 196.016 141.897 195.197 141.974 194.476 142.411 193.365 143.078 191.591 144.29 190.382 144.706 190.015 144.741 189.651 144.773 189.283 144.806 188.772 144.972 188.115 145.261 187.586 145.405 187.284 145.487 186.873 145.528 186.787 145.505 186.425 145.158 185.959 144.627 185.689 144.208 185.546 144.021 185.38 143.91 185.263 143.989 185.195 143.989 185.106 144.084 185.089 144.308 185.004 147.412 184.779 148.065 186.188 150.198 189.103 150.81 191.193 149.384 193.077 148.101 193.912 147.532 194.725 147.188 195.573 146.604 196.206 146.167 196.689 145.387 197.371 145.005 197.67 144.938 197.968 144.873 198.269 144.805 199.576 144.287 200.926 143.502 202.661 143.408 202.647 146.704 199.823 150.07 197.771 151.396 197.461 151.593 197.129 151.831 196.763 151.989 196.366 152.157 196.002 152.334 195.674 152.494 195.406 152.527 195.141 152.56 194.874 152.592 194.388 152.833 193.732 153.253 193.277 153.591 192.607 154.09 192.696 154.571 192.278 155.189 192.278 155.257 192.278 155.322 192.278 155.388 197.608 155.354 200.904 153.025 203.859 150.596 204.969 149.686 206.342 148.885 206.955 147.501 207.695 145.836 207.964 143.795 208.452 142.011 208.554 141.312 208.651 140.613 208.752 139.914 209.045 139.39 210.505 138.612 211.048 138.215 211.574 137.834 212.017 137.207 212.545 136.818 213.611 136.03 214.68 135.318 215.74 134.52 216.309 134.096 217.146 133.324 217.537 132.726Z" fill="#9B0000" transform="matrix(1.00542 0 0 1 969 -73.6626)"/><path d="M217.739 147.802C216.756 147.031 216.341 145.89 214.542 145.904 214.451 145.994 214.37 146.04 214.243 146.104 214.189 148.459 214.501 148.787 215.142 150.497 215.209 150.797 215.273 151.095 215.344 151.397 215.58 151.857 216.508 152.911 215.941 153.792 216.052 154.705 217.586 155.037 218.637 154.69 219.764 154.32 220.934 153.542 221.632 152.693 221.618 150.11 219.238 148.977 217.739 147.802Z" fill="#9B0000" transform="matrix(1.00542 0 0 1 969 -73.6626)"/><path d="M161.327 116.851C161.462 116.951 161.594 117.051 161.727 117.151 162.095 117.679 162.532 118.546 162.725 119.148 163.132 120.408 163.243 122.523 162.326 123.142 162.186 123.218 162.301 124.15 162.625 124.139 164.213 123.946 165.81 122.832 166.42 121.643 169.177 121.721 170.705 120.923 170.513 118.15 170.249 117.866 170.123 117.386 169.812 117.151 168.993 116.525 168.061 115.899 167.218 115.353 166.824 115.099 166.324 115.101 165.92 114.855 164.508 113.992 163.36 113.108 161.027 113.156 159.872 114.521 160.588 114.493 161.127 115.652 161.195 116.052 161.26 116.45 161.327 116.851Z" fill="#9B0000" transform="matrix(1.00542 0 0 1 969 -73.6626)"/><path d="M159.13 135.123C159.883 135.314 161.625 134.928 162.227 134.722 163.902 134.15 165.667 131.191 167.117 130.129 168.085 129.422 169.179 128.381 170.313 127.933 170.746 127.867 171.178 127.799 171.611 127.733 172.044 127.268 172.477 126.801 172.909 126.335 172.878 125.763 172.748 125.326 172.509 125.337 172.111 125.337 171.711 125.337 171.311 125.337 170.794 125.673 169.831 125.548 169.214 125.736 168.08 126.086 166.89 126.603 165.82 126.937 165.52 126.968 165.221 127 164.922 127.036 161.619 128.277 158.178 129.701 155.037 131.028 154.826 131.521 154.387 132.278 154.837 132.826 155.186 133.818 157.99 134.831 159.13 135.123Z" fill="#9B0000" transform="matrix(1.00542 0 0 1 969 -73.6626)"/><path d="M169.115 144.008C167.89 144.011 166.799 143.753 165.721 144.109 165.21 144.275 164.974 144.696 164.424 144.806 164.529 144.16 165.793 143.382 166.221 142.91 166.568 142.526 166.907 142.022 167.319 141.711 167.665 141.45 168.156 141.252 168.417 140.914 168.594 140.683 168.698 140.292 168.916 140.114 169.082 140.082 169.251 140.049 169.415 140.014 169.67 139.782 169.732 139.326 170.014 139.117 170.855 138.492 171.659 138.345 172.212 137.42 172.321 137.224 172.116 136.807 171.911 136.62 171.252 136.091 167.989 135.663 166.82 136.021 166.23 136.202 165.402 136.557 164.924 136.919 164.757 137.151 164.59 137.385 164.424 137.618 163.925 137.685 163.426 137.751 162.927 137.818 162.324 138.184 161.815 138.904 161.23 139.316 160.022 140.165 158.734 140.88 157.435 141.612 156.871 141.939 156.212 140.585 155.836 140.315 155.592 140.138 155.266 140.105 155.038 139.915 154.807 139.938 154.757 139.934 154.639 140.014 154.407 140.09 154.415 140.118 154.24 140.215 154.196 140.924 154.515 141.774 154.339 142.512 153.948 144.156 153.222 147.178 153.84 149.1 153.941 149.411 154.309 149.797 154.439 150.098 154.602 150.473 154.536 150.838 154.739 151.196 155.027 151.705 155.712 151.871 155.937 152.495 156.809 152.323 158.321 149.568 158.999 148.501 159.002 148.497 159.002 148.492 159.005 148.488 159.151 148.235 159.13 148.072 159.13 147.897L159.13 147.868 159.131 147.868C159.131 147.048 159.131 146.227 159.131 145.406 159.461 145.323 160.131 145.2 160.43 145.005 160.908 145.007 161.062 145.063 161.328 145.206 161.298 145.518 160.189 148.231 160.031 148.402 160.108 149.097 160.562 149.337 161.128 149.501 160.957 150.863 159.438 151.157 158.532 151.795 157.459 152.554 156.274 153.391 155.138 154.092 154.689 154.37 154.187 154.413 153.74 154.691 153.468 154.863 153.218 155.224 152.943 155.389 152.472 155.674 151.973 155.687 151.543 155.99 151.329 156.141 151.242 156.503 150.945 156.589 150.533 156.708 150.203 156.346 149.946 156.29 149.326 156.151 148.895 156.58 148.449 156.69 148.327 159.149 149.401 161.657 152.143 161.681 153.515 160.226 155.013 159.009 156.238 157.388 156.67 157.022 157.102 156.656 157.535 156.29 157.829 155.855 157.906 155.467 158.234 155.09 158.355 154.952 158.574 155.004 158.732 154.891 159.098 154.492 159.465 154.092 159.829 153.693 160.168 153.45 160.487 153.431 160.729 153.093 160.935 153.133 160.923 153.119 161.028 153.195 161.288 153.544 161.28 154.128 161.528 154.492 161.546 155.384 161.615 156.406 161.028 156.69 160.729 156.754 160.43 156.822 160.129 156.888 159.881 157.074 159.797 157.491 159.531 157.686 159.531 157.887 159.531 158.086 159.531 158.287 159.601 158.423 161.358 159 161.627 159.185 161.838 159.329 162.244 159.832 162.327 160.082 162.327 160.383 162.327 160.682 162.327 160.981 162.45 161.254 162.938 161.592 163.125 161.88 163.446 161.954 164.12 162.087 164.424 161.88 164.524 161.846 164.624 161.813 164.722 161.78 164.675 158.721 164.489 155.916 163.624 153.592 163.33 152.804 162.231 151.351 162.926 150.298 162.927 148.818 163.944 149.233 164.822 148.7 166.043 147.959 167.367 147.247 168.516 146.404 168.961 146.078 169.151 145.519 169.514 145.107 169.438 144.625 169.236 144.415 169.115 144.008Z" fill="#9B0000" transform="matrix(1.00542 0 0 1 969 -73.6626)"/><path d="M174.906 150.697C173.86 149.266 172.754 147.95 170.215 148.002 170.032 148.124 169.642 148.115 169.315 148.102 168.815 150.171 168.876 151.839 169.913 153.392 170.181 153.626 170.446 153.858 170.713 154.091 171.3 154.967 171.633 155.827 172.709 156.189 173.8 156.894 175.091 155.527 175.603 155.19 175.75 154.608 176.24 152.719 175.903 152.195 175.856 151.356 175.274 151.202 174.906 150.697Z" fill="#9B0000" transform="matrix(1.00542 0 0 1 969 -73.6626)"/></g></svg>